<mxfile host="Electron" modified="2024-03-06T01:23:10.070Z" agent="Mozilla/5.0 (X11; Linux x86_64) AppleWebKit/537.36 (KHTML, like Gecko) draw.io/23.0.2 Chrome/120.0.6099.109 Electron/28.1.2 Safari/537.36" etag="TDv7R3bJHtL58IqNlQND" version="23.0.2" type="device">
  <diagram id="C5RBs43oDa-KdzZeNtuy" name="Page-1">
    <mxGraphModel dx="1257" dy="850" grid="1" gridSize="10" guides="1" tooltips="1" connect="1" arrows="1" fold="1" page="1" pageScale="1" pageWidth="827" pageHeight="1169" math="0" shadow="0">
      <root>
        <mxCell id="WIyWlLk6GJQsqaUBKTNV-0" />
        <mxCell id="WIyWlLk6GJQsqaUBKTNV-1" parent="WIyWlLk6GJQsqaUBKTNV-0" />
        <mxCell id="FdFXkjqcjthbyAfY8qN8-8" value="&amp;lt;&amp;lt;203..251&amp;gt;&amp;gt;&lt;br&gt;&amp;lt;&amp;lt;Class&amp;gt;&amp;gt;&lt;br&gt;AtomNamedEvent(pname, target)&lt;br&gt;{ret&amp;nbsp;AtomNamedEvent#&lt;span style=&quot;border-color: var(--border-color); text-align: left;&quot;&gt;mthis}&lt;br&gt;&lt;/span&gt;{type&amp;nbsp;AtomNamedEvent#&lt;span style=&quot;border-color: var(--border-color); text-align: left;&quot;&gt;OuterInterface}&lt;/span&gt;&lt;br&gt;&amp;nbsp;" style="swimlane;fontStyle=0;childLayout=stackLayout;horizontal=1;startSize=95;horizontalStack=0;resizeParent=1;resizeParentMax=0;resizeLast=0;collapsible=1;marginBottom=0;whiteSpace=wrap;html=1;" parent="WIyWlLk6GJQsqaUBKTNV-1" vertex="1">
          <mxGeometry x="170" y="45" width="440" height="310" as="geometry" />
        </mxCell>
        <mxCell id="FdFXkjqcjthbyAfY8qN8-10" value="&lt;font style=&quot;font-size: 16px;&quot;&gt;Members:&lt;/font&gt;" style="text;strokeColor=default;fillColor=none;align=left;verticalAlign=middle;spacingLeft=4;spacingRight=4;overflow=hidden;points=[[0,0.5],[1,0.5]];portConstraint=eastwest;rotatable=0;whiteSpace=wrap;html=1;fontStyle=1" parent="FdFXkjqcjthbyAfY8qN8-8" vertex="1">
          <mxGeometry y="95" width="440" height="30" as="geometry" />
        </mxCell>
        <mxCell id="FdFXkjqcjthbyAfY8qN8-38" value="&amp;lt;&amp;lt;77&amp;gt;&amp;gt;{type EventTartget}target &lt;font color=&quot;#990099&quot;&gt;&lt;b&gt;&lt;u&gt;(dev in prototype)&lt;/u&gt;&lt;/b&gt;&lt;/font&gt;" style="text;strokeColor=default;fillColor=none;align=left;verticalAlign=middle;spacingLeft=4;spacingRight=4;overflow=hidden;points=[[0,0.5],[1,0.5]];portConstraint=eastwest;rotatable=0;whiteSpace=wrap;html=1;fontStyle=0" parent="FdFXkjqcjthbyAfY8qN8-8" vertex="1">
          <mxGeometry y="125" width="440" height="30" as="geometry" />
        </mxCell>
        <mxCell id="FdFXkjqcjthbyAfY8qN8-34" value="&lt;span style=&quot;&quot;&gt;&amp;lt;&amp;lt;97&amp;gt;&amp;gt;{type&amp;nbsp;&lt;/span&gt;&lt;span style=&quot;&quot;&gt;AtomNamedEvent.&lt;/span&gt;&lt;span style=&quot;&quot;&gt;eventFunc}func&lt;/span&gt;&amp;nbsp;&lt;font style=&quot;border-color: var(--border-color);&quot; color=&quot;#990099&quot;&gt;&lt;b style=&quot;border-color: var(--border-color);&quot;&gt;&lt;u style=&quot;border-color: var(--border-color);&quot;&gt;(dev in prototype)&lt;/u&gt;&lt;/b&gt;&lt;/font&gt;" style="text;strokeColor=default;fillColor=none;align=left;verticalAlign=middle;spacingLeft=4;spacingRight=4;overflow=hidden;points=[[0,0.5],[1,0.5]];portConstraint=eastwest;rotatable=0;whiteSpace=wrap;html=1;fontStyle=0" parent="FdFXkjqcjthbyAfY8qN8-8" vertex="1">
          <mxGeometry y="155" width="440" height="30" as="geometry" />
        </mxCell>
        <mxCell id="FdFXkjqcjthbyAfY8qN8-36" value="&amp;lt;&amp;lt;242&amp;gt;&amp;gt;{type AtomNamedEvent#&lt;span style=&quot;&quot;&gt;OuterInterface}mthis&lt;br&gt;&amp;lt;&amp;lt;readonly&amp;gt;&amp;gt;&lt;br&gt;&lt;/span&gt;" style="text;strokeColor=default;fillColor=none;align=left;verticalAlign=middle;spacingLeft=4;spacingRight=4;overflow=hidden;points=[[0,0.5],[1,0.5]];portConstraint=eastwest;rotatable=0;whiteSpace=wrap;html=1;fontStyle=0" parent="FdFXkjqcjthbyAfY8qN8-8" vertex="1">
          <mxGeometry y="185" width="440" height="40" as="geometry" />
        </mxCell>
        <mxCell id="FdFXkjqcjthbyAfY8qN8-44" value="&lt;b&gt;&lt;font style=&quot;font-size: 14px;&quot;&gt;Methods:&lt;/font&gt;&lt;/b&gt;" style="text;strokeColor=default;fillColor=none;align=left;verticalAlign=middle;spacingLeft=4;spacingRight=4;overflow=hidden;points=[[0,0.5],[1,0.5]];portConstraint=eastwest;rotatable=0;whiteSpace=wrap;html=1;fontStyle=0" parent="FdFXkjqcjthbyAfY8qN8-8" vertex="1">
          <mxGeometry y="225" width="440" height="40" as="geometry" />
        </mxCell>
        <mxCell id="FdFXkjqcjthbyAfY8qN8-43" value="&lt;span style=&quot;color: rgb(0, 0, 0); font-family: Helvetica; font-size: 12px; font-style: normal; font-variant-ligatures: normal; font-variant-caps: normal; font-weight: 400; letter-spacing: normal; orphans: 2; text-align: left; text-indent: 0px; text-transform: none; widows: 2; word-spacing: 0px; -webkit-text-stroke-width: 0px; background-color: rgb(251, 251, 251); text-decoration-thickness: initial; text-decoration-style: initial; text-decoration-color: initial; float: none; display: inline !important;&quot;&gt;&amp;lt;&amp;lt;179&amp;gt;&amp;gt;&lt;/span&gt;&lt;span style=&quot;border-color: var(--border-color); color: rgb(0, 0, 0); font-family: Helvetica; font-size: 12px; font-style: normal; font-variant-ligatures: normal; font-variant-caps: normal; font-weight: 400; letter-spacing: normal; orphans: 2; text-align: left; text-indent: 0px; text-transform: none; widows: 2; word-spacing: 0px; -webkit-text-stroke-width: 0px; background-color: rgb(251, 251, 251); text-decoration-thickness: initial; text-decoration-style: initial; text-decoration-color: initial;&quot;&gt;&amp;nbsp;init(pname, target)&amp;nbsp;&lt;/span&gt;{return&amp;nbsp; AtomNamedEvent#&lt;span style=&quot;border-color: var(--border-color);&quot;&gt;OuterInterface} &amp;lt;&amp;lt;static&amp;gt;&amp;gt;&amp;nbsp;&lt;font style=&quot;border-color: var(--border-color);&quot; color=&quot;#990099&quot;&gt;&lt;b style=&quot;border-color: var(--border-color);&quot;&gt;&lt;u style=&quot;border-color: var(--border-color);&quot;&gt;(dev in prototype)&lt;/u&gt;&lt;/b&gt;&lt;/font&gt;&lt;br&gt;&lt;/span&gt;" style="text;strokeColor=default;fillColor=none;align=left;verticalAlign=middle;spacingLeft=4;spacingRight=4;overflow=hidden;points=[[0,0.5],[1,0.5]];portConstraint=eastwest;rotatable=0;whiteSpace=wrap;html=1;fontStyle=0" parent="FdFXkjqcjthbyAfY8qN8-8" vertex="1">
          <mxGeometry y="265" width="440" height="45" as="geometry" />
        </mxCell>
        <mxCell id="FdFXkjqcjthbyAfY8qN8-16" value="&amp;lt;&amp;lt;18..70&amp;gt;&amp;gt;&lt;br&gt;&amp;lt;&amp;lt;interface&amp;gt;&amp;gt;&lt;br&gt;EventTarget" style="swimlane;fontStyle=0;childLayout=stackLayout;horizontal=1;startSize=50;horizontalStack=0;resizeParent=1;resizeParentMax=0;resizeLast=0;collapsible=1;marginBottom=0;whiteSpace=wrap;html=1;" parent="WIyWlLk6GJQsqaUBKTNV-1" vertex="1">
          <mxGeometry x="910" y="260" width="180" height="170" as="geometry" />
        </mxCell>
        <mxCell id="FdFXkjqcjthbyAfY8qN8-17" value="&lt;b&gt;&lt;font style=&quot;font-size: 14px;&quot;&gt;Methods:&lt;/font&gt;&lt;/b&gt;" style="text;strokeColor=default;fillColor=none;align=left;verticalAlign=middle;spacingLeft=4;spacingRight=4;overflow=hidden;points=[[0,0.5],[1,0.5]];portConstraint=eastwest;rotatable=0;whiteSpace=wrap;html=1;" parent="FdFXkjqcjthbyAfY8qN8-16" vertex="1">
          <mxGeometry y="50" width="180" height="30" as="geometry" />
        </mxCell>
        <mxCell id="FdFXkjqcjthbyAfY8qN8-18" value="&amp;lt;&amp;lt;39&amp;gt;&amp;gt;addEventListener" style="text;strokeColor=default;fillColor=none;align=left;verticalAlign=middle;spacingLeft=4;spacingRight=4;overflow=hidden;points=[[0,0.5],[1,0.5]];portConstraint=eastwest;rotatable=0;whiteSpace=wrap;html=1;" parent="FdFXkjqcjthbyAfY8qN8-16" vertex="1">
          <mxGeometry y="80" width="180" height="30" as="geometry" />
        </mxCell>
        <mxCell id="FdFXkjqcjthbyAfY8qN8-19" value="&amp;lt;&amp;lt;61&amp;gt;&amp;gt;dispatchEvent" style="text;strokeColor=default;fillColor=none;align=left;verticalAlign=middle;spacingLeft=4;spacingRight=4;overflow=hidden;points=[[0,0.5],[1,0.5]];portConstraint=eastwest;rotatable=0;whiteSpace=wrap;html=1;" parent="FdFXkjqcjthbyAfY8qN8-16" vertex="1">
          <mxGeometry y="110" width="180" height="30" as="geometry" />
        </mxCell>
        <mxCell id="FdFXkjqcjthbyAfY8qN8-49" value="&amp;lt;&amp;lt;50&amp;gt;&amp;gt;removeEventListener" style="text;strokeColor=default;fillColor=none;align=left;verticalAlign=middle;spacingLeft=4;spacingRight=4;overflow=hidden;points=[[0,0.5],[1,0.5]];portConstraint=eastwest;rotatable=0;whiteSpace=wrap;html=1;" parent="FdFXkjqcjthbyAfY8qN8-16" vertex="1">
          <mxGeometry y="140" width="180" height="30" as="geometry" />
        </mxCell>
        <mxCell id="FdFXkjqcjthbyAfY8qN8-20" value="&amp;lt;&amp;lt;80..160&amp;gt;&amp;gt;&lt;br&gt;&amp;lt;&amp;lt;Mixins&amp;gt;&amp;gt;&lt;br&gt;eventFunc" style="swimlane;fontStyle=0;childLayout=stackLayout;horizontal=1;startSize=50;horizontalStack=0;resizeParent=1;resizeParentMax=0;resizeLast=0;collapsible=1;marginBottom=0;whiteSpace=wrap;html=1;" parent="WIyWlLk6GJQsqaUBKTNV-1" vertex="1">
          <mxGeometry x="560" y="540" width="230" height="280" as="geometry" />
        </mxCell>
        <mxCell id="FdFXkjqcjthbyAfY8qN8-21" value="&lt;font style=&quot;font-size: 14px;&quot;&gt;&lt;b&gt;Methods:&lt;/b&gt;&lt;/font&gt;" style="text;strokeColor=default;fillColor=none;align=left;verticalAlign=middle;spacingLeft=4;spacingRight=4;overflow=hidden;points=[[0,0.5],[1,0.5]];portConstraint=eastwest;rotatable=0;whiteSpace=wrap;html=1;" parent="FdFXkjqcjthbyAfY8qN8-20" vertex="1">
          <mxGeometry y="50" width="230" height="30" as="geometry" />
        </mxCell>
        <mxCell id="FdFXkjqcjthbyAfY8qN8-22" value="&amp;lt;&amp;lt;100&amp;gt;&amp;gt;addListener&lt;br&gt;&amp;lt;&amp;lt;static&amp;gt;&amp;gt;" style="text;strokeColor=default;fillColor=none;align=left;verticalAlign=middle;spacingLeft=4;spacingRight=4;overflow=hidden;points=[[0,0.5],[1,0.5]];portConstraint=eastwest;rotatable=0;whiteSpace=wrap;html=1;" parent="FdFXkjqcjthbyAfY8qN8-20" vertex="1">
          <mxGeometry y="80" width="230" height="40" as="geometry" />
        </mxCell>
        <mxCell id="FdFXkjqcjthbyAfY8qN8-51" value="&amp;lt;&amp;lt;134&amp;gt;&amp;gt;dispatchEvent&lt;br&gt;&amp;lt;&amp;lt;static&amp;gt;&amp;gt;" style="text;strokeColor=default;fillColor=none;align=left;verticalAlign=middle;spacingLeft=4;spacingRight=4;overflow=hidden;points=[[0,0.5],[1,0.5]];portConstraint=eastwest;rotatable=0;whiteSpace=wrap;html=1;" parent="FdFXkjqcjthbyAfY8qN8-20" vertex="1">
          <mxGeometry y="120" width="230" height="40" as="geometry" />
        </mxCell>
        <mxCell id="FdFXkjqcjthbyAfY8qN8-52" value="&amp;lt;&amp;lt;117&amp;gt;&amp;gt;removeListener&lt;br&gt;&amp;lt;&amp;lt;static&amp;gt;&amp;gt;" style="text;strokeColor=default;fillColor=none;align=left;verticalAlign=middle;spacingLeft=4;spacingRight=4;overflow=hidden;points=[[0,0.5],[1,0.5]];portConstraint=eastwest;rotatable=0;whiteSpace=wrap;html=1;" parent="FdFXkjqcjthbyAfY8qN8-20" vertex="1">
          <mxGeometry y="160" width="230" height="40" as="geometry" />
        </mxCell>
        <mxCell id="FdFXkjqcjthbyAfY8qN8-53" value="&amp;lt;&amp;lt;155&amp;gt;&amp;gt;emmit&lt;br&gt;&amp;lt;&amp;lt;static&amp;gt;&amp;gt;" style="text;strokeColor=default;fillColor=none;align=left;verticalAlign=middle;spacingLeft=4;spacingRight=4;overflow=hidden;points=[[0,0.5],[1,0.5]];portConstraint=eastwest;rotatable=0;whiteSpace=wrap;html=1;" parent="FdFXkjqcjthbyAfY8qN8-20" vertex="1">
          <mxGeometry y="200" width="230" height="40" as="geometry" />
        </mxCell>
        <mxCell id="FdFXkjqcjthbyAfY8qN8-54" value="&amp;lt;&amp;lt;149&amp;gt;&amp;gt;on&lt;br&gt;&amp;lt;&amp;lt;static&amp;gt;&amp;gt;" style="text;strokeColor=default;fillColor=none;align=left;verticalAlign=middle;spacingLeft=4;spacingRight=4;overflow=hidden;points=[[0,0.5],[1,0.5]];portConstraint=eastwest;rotatable=0;whiteSpace=wrap;html=1;" parent="FdFXkjqcjthbyAfY8qN8-20" vertex="1">
          <mxGeometry y="240" width="230" height="40" as="geometry" />
        </mxCell>
        <mxCell id="FdFXkjqcjthbyAfY8qN8-24" value="&amp;lt;&amp;lt;4..15&amp;gt;&amp;gt;&lt;br&gt;&amp;lt;&amp;lt;Class&amp;gt;&amp;gt;&lt;br&gt;Event" style="swimlane;fontStyle=0;childLayout=stackLayout;horizontal=1;startSize=50;horizontalStack=0;resizeParent=1;resizeParentMax=0;resizeLast=0;collapsible=1;marginBottom=0;whiteSpace=wrap;html=1;" parent="WIyWlLk6GJQsqaUBKTNV-1" vertex="1">
          <mxGeometry x="1250" y="30" width="140" height="140" as="geometry" />
        </mxCell>
        <mxCell id="FdFXkjqcjthbyAfY8qN8-25" value="Item 1" style="text;strokeColor=default;fillColor=none;align=left;verticalAlign=middle;spacingLeft=4;spacingRight=4;overflow=hidden;points=[[0,0.5],[1,0.5]];portConstraint=eastwest;rotatable=0;whiteSpace=wrap;html=1;" parent="FdFXkjqcjthbyAfY8qN8-24" vertex="1">
          <mxGeometry y="50" width="140" height="30" as="geometry" />
        </mxCell>
        <mxCell id="FdFXkjqcjthbyAfY8qN8-26" value="Item 2" style="text;strokeColor=default;fillColor=none;align=left;verticalAlign=middle;spacingLeft=4;spacingRight=4;overflow=hidden;points=[[0,0.5],[1,0.5]];portConstraint=eastwest;rotatable=0;whiteSpace=wrap;html=1;" parent="FdFXkjqcjthbyAfY8qN8-24" vertex="1">
          <mxGeometry y="80" width="140" height="30" as="geometry" />
        </mxCell>
        <mxCell id="FdFXkjqcjthbyAfY8qN8-27" value="Item 3" style="text;strokeColor=default;fillColor=none;align=left;verticalAlign=middle;spacingLeft=4;spacingRight=4;overflow=hidden;points=[[0,0.5],[1,0.5]];portConstraint=eastwest;rotatable=0;whiteSpace=wrap;html=1;" parent="FdFXkjqcjthbyAfY8qN8-24" vertex="1">
          <mxGeometry y="110" width="140" height="30" as="geometry" />
        </mxCell>
        <mxCell id="FdFXkjqcjthbyAfY8qN8-28" value="&amp;lt;&amp;lt;247..257&amp;gt;&amp;gt;&lt;br&gt;&amp;lt;&amp;lt;tyede {Event}f&amp;gt;&amp;gt;&lt;br&gt;AtomNamedEvent#OuterInterface" style="swimlane;fontStyle=0;childLayout=stackLayout;horizontal=1;startSize=50;horizontalStack=0;resizeParent=1;resizeParentMax=0;resizeLast=0;collapsible=1;marginBottom=0;whiteSpace=wrap;html=1;" parent="WIyWlLk6GJQsqaUBKTNV-1" vertex="1">
          <mxGeometry x="40" y="570" width="199" height="80" as="geometry" />
        </mxCell>
        <mxCell id="FdFXkjqcjthbyAfY8qN8-29" value="{type AtomNamedEvent} _this" style="text;strokeColor=default;fillColor=none;align=left;verticalAlign=middle;spacingLeft=4;spacingRight=4;overflow=hidden;points=[[0,0.5],[1,0.5]];portConstraint=eastwest;rotatable=0;whiteSpace=wrap;html=1;" parent="FdFXkjqcjthbyAfY8qN8-28" vertex="1">
          <mxGeometry y="50" width="199" height="30" as="geometry" />
        </mxCell>
        <mxCell id="FdFXkjqcjthbyAfY8qN8-35" value="" style="endArrow=open;dashed=1;html=1;dashPattern=1 3;strokeWidth=1;rounded=0;endFill=0;exitX=1;exitY=0.5;exitDx=0;exitDy=0;entryX=0.5;entryY=0;entryDx=0;entryDy=0;" parent="WIyWlLk6GJQsqaUBKTNV-1" source="FdFXkjqcjthbyAfY8qN8-34" target="FdFXkjqcjthbyAfY8qN8-20" edge="1">
          <mxGeometry width="50" height="50" relative="1" as="geometry">
            <mxPoint x="600" y="155" as="sourcePoint" />
            <mxPoint x="620" y="225" as="targetPoint" />
            <Array as="points">
              <mxPoint x="640" y="195" />
              <mxPoint x="640" y="315" />
            </Array>
          </mxGeometry>
        </mxCell>
        <mxCell id="FdFXkjqcjthbyAfY8qN8-37" value="" style="endArrow=open;dashed=1;html=1;dashPattern=1 3;strokeWidth=1;rounded=0;endFill=0;exitX=0;exitY=0.5;exitDx=0;exitDy=0;entryX=0.5;entryY=0;entryDx=0;entryDy=0;" parent="WIyWlLk6GJQsqaUBKTNV-1" source="FdFXkjqcjthbyAfY8qN8-36" target="FdFXkjqcjthbyAfY8qN8-28" edge="1">
          <mxGeometry width="50" height="50" relative="1" as="geometry">
            <mxPoint x="210" y="215" as="sourcePoint" />
            <mxPoint x="240" y="410" as="targetPoint" />
            <Array as="points">
              <mxPoint x="130" y="230" />
            </Array>
          </mxGeometry>
        </mxCell>
        <mxCell id="FdFXkjqcjthbyAfY8qN8-39" value="" style="endArrow=classic;html=1;rounded=0;exitX=0.295;exitY=1.058;exitDx=0;exitDy=0;exitPerimeter=0;entryX=0.75;entryY=0;entryDx=0;entryDy=0;" parent="WIyWlLk6GJQsqaUBKTNV-1" source="FdFXkjqcjthbyAfY8qN8-43" target="FdFXkjqcjthbyAfY8qN8-28" edge="1">
          <mxGeometry width="50" height="50" relative="1" as="geometry">
            <mxPoint x="470" y="365" as="sourcePoint" />
            <mxPoint x="340" y="415" as="targetPoint" />
          </mxGeometry>
        </mxCell>
        <mxCell id="FdFXkjqcjthbyAfY8qN8-40" value="" style="endArrow=classic;html=1;rounded=0;exitX=0.764;exitY=1.017;exitDx=0;exitDy=0;exitPerimeter=0;entryX=0.25;entryY=0;entryDx=0;entryDy=0;" parent="WIyWlLk6GJQsqaUBKTNV-1" source="FdFXkjqcjthbyAfY8qN8-43" target="FdFXkjqcjthbyAfY8qN8-20" edge="1">
          <mxGeometry width="50" height="50" relative="1" as="geometry">
            <mxPoint x="440" y="265" as="sourcePoint" />
            <mxPoint x="350" y="425" as="targetPoint" />
          </mxGeometry>
        </mxCell>
        <mxCell id="FdFXkjqcjthbyAfY8qN8-41" value="" style="endArrow=open;dashed=1;html=1;dashPattern=1 3;strokeWidth=1;rounded=0;endFill=0;exitX=1;exitY=0.5;exitDx=0;exitDy=0;entryX=0.5;entryY=0;entryDx=0;entryDy=0;" parent="WIyWlLk6GJQsqaUBKTNV-1" source="FdFXkjqcjthbyAfY8qN8-38" target="FdFXkjqcjthbyAfY8qN8-16" edge="1">
          <mxGeometry width="50" height="50" relative="1" as="geometry">
            <mxPoint x="644" y="155" as="sourcePoint" />
            <mxPoint x="860" y="55" as="targetPoint" />
            <Array as="points">
              <mxPoint x="650" y="180" />
              <mxPoint x="650" y="70" />
              <mxPoint x="1000" y="70" />
              <mxPoint x="1000" y="140" />
            </Array>
          </mxGeometry>
        </mxCell>
        <mxCell id="FdFXkjqcjthbyAfY8qN8-46" value="" style="endArrow=open;dashed=1;html=1;dashPattern=1 3;strokeWidth=1;rounded=0;endFill=0;exitX=1.005;exitY=0.125;exitDx=0;exitDy=0;entryX=-0.021;entryY=0.1;entryDx=0;entryDy=0;exitPerimeter=0;entryPerimeter=0;" parent="WIyWlLk6GJQsqaUBKTNV-1" source="FdFXkjqcjthbyAfY8qN8-28" target="FdFXkjqcjthbyAfY8qN8-20" edge="1">
          <mxGeometry width="50" height="50" relative="1" as="geometry">
            <mxPoint x="450" y="440" as="sourcePoint" />
            <mxPoint x="520" y="670" as="targetPoint" />
          </mxGeometry>
        </mxCell>
        <mxCell id="FdFXkjqcjthbyAfY8qN8-47" value="mixes" style="edgeLabel;html=1;align=center;verticalAlign=middle;resizable=0;points=[];" parent="FdFXkjqcjthbyAfY8qN8-46" vertex="1" connectable="0">
          <mxGeometry x="-0.0146" y="-2" relative="1" as="geometry">
            <mxPoint as="offset" />
          </mxGeometry>
        </mxCell>
        <mxCell id="FdFXkjqcjthbyAfY8qN8-50" value="" style="endArrow=open;dashed=1;html=1;dashPattern=1 3;strokeWidth=1;rounded=0;endFill=0;exitX=1.014;exitY=0.07;exitDx=0;exitDy=0;entryX=0.25;entryY=0;entryDx=0;entryDy=0;exitPerimeter=0;edgeStyle=orthogonalEdgeStyle;" parent="WIyWlLk6GJQsqaUBKTNV-1" source="FdFXkjqcjthbyAfY8qN8-20" target="FdFXkjqcjthbyAfY8qN8-16" edge="1">
          <mxGeometry width="50" height="50" relative="1" as="geometry">
            <mxPoint x="620" y="195" as="sourcePoint" />
            <mxPoint x="880" y="240" as="targetPoint" />
            <Array as="points">
              <mxPoint x="820" y="465" />
              <mxPoint x="820" y="170" />
              <mxPoint x="955" y="170" />
            </Array>
          </mxGeometry>
        </mxCell>
      </root>
    </mxGraphModel>
  </diagram>
</mxfile>
